{
  "asset": {"version": "2.0", "generator": "CursorAI"},
  "buffers": [
    {"uri": "avatar.bin", "byteLength": 72}
  ],
  "bufferViews": [
    {"buffer": 0, "byteOffset": 0, "byteLength": 36},
    {"buffer": 0, "byteOffset": 36, "byteLength": 36}
  ],
  "accessors": [
    {"bufferView": 0, "componentType": 5126, "count": 3, "type": "VEC3", "min": [-0.5, 0, 0], "max": [0.5, 1, 0]},
    {"bufferView": 1, "componentType": 5126, "count": 3, "type": "VEC3"}
  ],
  "materials": [
    {"pbrMetallicRoughness": {"baseColorFactor": [0.9, 0.9, 0.95, 1.0], "metallicFactor": 0.0, "roughnessFactor": 0.7}, "doubleSided": true}
  ],
  "meshes": [
    {"primitives": [
      {"attributes": {"POSITION": 0, "NORMAL": 1}, "material": 0, "mode": 4}
    ]}
  ],
  "nodes": [
    {"mesh": 0}
  ],
  "scenes": [
    {"nodes": [0]}
  ],
  "scene": 0
}

